# xmcd
#
# Track frame offsets:
#	150
#	7186
#	25148
#	35626
#	55023
#	81616
#	105926
#	142040
#	159695
#	176376
#	192601
#	212244
#	228277
#	246431
#	265434
#	280078
#	304357
#	319291
#	336513
#
# Disc length: 4731 seconds
#
# Revision: 1
# Processed by: cddbd v1.5.2PL0 Copyright (c) Steve Scherf et al.
# Submitted via: EZCDAudioConverter 8.3.2.1
#
DISCID=24127913
DTITLE=JN - 지누앨범5-1
DYEAR=1900
DGENRE=country
TTITLE0=지누션 and 엄정화 - 말해줘
TTITLE1=장국영 - 장국영-월량대표아적심(live)
TTITLE2=Cliff Richard - Early in the morning
TTITLE3=포멘four men - 나보다더나를사랑한
TTITLE4=Remix By ChiChi - Tokyo By Night 'N Happy Song
TTITLE5=조관우 - [조관우] 모래성 LIVE
TTITLE6=C.c. Catch - Megamix '98 (long V
TTITLE7=영턱스 - 정
TTITLE8=심수봉 - 그때_그_사람
TTITLE9=장국영&왕조현 - 새벽이여 오지마라
TTITLE10=노영심 - 그리움만쌓이네
TTITLE11=유진박 - 헝가리안 댄스5 (브람스)
TTITLE12=명작2 - 03 내가 날 버린 이유(베이시스
TTITLE13=바이브 - 미워도다시한번만
TTITLE14=뉴리안 - 뉴리안-추억의썸머타임리믹스(클럽용)
TTITLE15=국악 - canon
TTITLE16=나이트 - ★★스키스키★★
TTITLE17=[tuningmp3.co.kr] - 마야1집_13진달래꽃Club Remix]
TTITLE18=Eurodance80 - fantasyboy(mix)
EXTD=
EXTT0=
EXTT1=
EXTT2=
EXTT3=
EXTT4=
EXTT5=
EXTT6=
EXTT7=
EXTT8=
EXTT9=
EXTT10=
EXTT11=
EXTT12=
EXTT13=
EXTT14=
EXTT15=
EXTT16=
EXTT17=
EXTT18=
PLAYORDER=
